P2
# CREATOR: Image Processing using C-Ansi - ByDu
93  62
255
 21  21  22  21  19  20  28  79 141 164 165 150 143 134 136 136 127 
 89  36  28  26  25  25  27  27  28  32  36  39  40  41  39  41  41 
 44  52  49  50  52  45  54  51  46  41  36  46  49  48  47  42  33 
 21  19  16  11  11  15  19  20  23  30  29  30  41  37  39  38  33 
 34  37  35  32  32  32  33  31  25  27  25  24  25  27  25  26  29 
 27  31  30  32  34  35  35  34  21  21  24  23  23  21  30  73 131 
159 159 146 140 140 135 135 118  69  26  27  30  28  26  29  31  28 
 32  35  38  41  41  40  41  44  46  47  52  51  53  53  56  53  47 
 44  44  48  46  43  42  36  29  23  21  20  16  13  12  17  18  22 
 23  29  32  35  38  33  35  33  38  36  34  33  28  35  29  28  22 
 27  19  28  28  28  30  29  31  34  33  36  35  36  40  35  33  21 
 23  24  24  26  23  28  63 120 145 154 143 138 133 131 122  99  41 
 29  31  32  29  29  30  32  30  31  36  42  42  43  44  46  48  49 
 49  51  52  59  55  51  47  41  40  36  40  40  39  36  31  28  23 
 21  21  18  16  15  14  14  16  19  21  26  30  31  32  34  33  36 
 36  35  36  33  36  35  34  32  31  31  32  31  32  30  31  32  36 
 38  37  40  38  39  35  31  20  21  24  24  27  23  26  50 103 137 
144 140 137 137 128 113  75  36  35  31  31  31  31  31  30  31  32 
 34  40  41  44  46  50  49  49  49  51  53  56  51  51  48  44  40 
 39  35  37  35  34  30  28  26  24  24  22  20  16  16  13  16  19 
 22  23  26  27  32  33  33  34  36  33  35  38  38  39  41  42  34 
 33  32  32  31  31  36  35  37  39  38  42  40  39  32  30  20  21 
 23  23  26  26  28  49  76 110 128 135 144 129 116  86  40  36  40 
 31  26  29  33  32  30  31  33  35  38  40  42  43  47  49  51  50 
 53  49  50  52  51  51  46  39  33  32  32  34  31  30  29  31  31 
 32  31  32  21  18  17  17  19  22  23  26  27  28  33  31  32  30 
 33  30  28  39  40  43  42  38  38  34  31  30  29  31  36  39  40 
 42  42  41  37  33  28  21  21  22  22  24  26  31  35  50  62  98 
107 120 113  90  44  42  41  35  30  26  28  33  33  33  30  32  33 
 37  38  37  39  43  48  50  50  50  49  50  46  42  47  43  38  31 
 30  28  28  27  29  26  29  34  36  34  29  23  21  21  18  19  21 
 23  21  26  27  28  29  27  29  29  30  33  34  36  39  41  39  39 
 35  36  31  32  32  36  39  45  46  45  43  38  31  26  23  23  26 
 26  26  28  30  31  38  40  41  69  82  66  47  37  37  36  31  30 
 28  30  30  30  27  28  27  28  33  35  34  37  43  46  48  51  50 
 46  43  43  43  50  44  38  35  31  25  26  29  30  33  34  35  37 
 36  31  27  23  22  21  20  20  21  20  21  23  23  25  27  27  29 
 32  33  35  37  37  35  34  34  35  37  32  32  31  34  42  44  47 
 43  44  37  34  28  23  23  25  28  29  31  29  32  32  30  36  37 
 41  39  41  39  36  34  31  33  34  32  33  32  32  33  30  30  34 
 37  36  39  40  42  47  50  46  44  41  41  41  45  43  41  37  29 
 26  25  28  31  33  36  34  38  36  31  27  26  26  24  25  22  21 
 22  22  21  21  23  26  29  32  33  38  41  42  40  36  39  35  36 
 36  33  32  32  34  34  40  41  37  37  33  32  28  22  25  27  29 
 30  30  33  34  33  34  32  33  37  37  34  31  34  31  35  35  38 
 37  41  43  45  40  38  36  33  37  39  38  37  39  43  47  44  43 
 38  37  42  44  45  42  39  31  30  27  27  29  31  33  34  34  36 
 36  35  37  36  30  28  30  27  23  23  23  25  25  23  30  36  40 
 41  45  42  44  36  39  39  38  37  35  31  30  31  33  35  34  32 
 35  34  34  27  23  26  28  31  32  31  32  30  30  33  33  33  33 
 33  31  29  30  35  34  38  40  40  43  45  46  44  39  39  36  35 
 38  36  32  34  38  41  44  42  38  38  40  42  40  40  36  35  34 
 29  30  30  31  33  35  36  38  36  38  38  35  33  32  30  25  25 
 25  23  25  25  23  27  32  38  41  45  47  43  43  42  37  41  37 
 34  32  28  27  29  31  31  29  27  28  28  25  26  26  28  27  29 
 29  31  31  30  29  29  27  28  27  27  26  28  32  33  36  40  42 
 45  45  48  50  41  40  36  37  38  35  31  31  32  31  30  32  35 
 37  39  40  42  43  44  42  41  35  36  35  35  39  40  41  40  41 
 41  41  35  34  32  28  25  24  25  23  21  22  22  22  27  29  36 
 36  36  40  41  40  38  37  33  30  28  24  22  25  26  26  23  22 
 22  22  22  26  27  28  30  29  29  31  33  33  32  29  25  21  23 
 24  23  24  24  29  36  38  43  46  49  48  45  42  39  37  35  36 
 33  29  27  26  24  24  23  28  32  38  39  42  43  47  47  49  45 
 38  36  37  37  42  46  44  44  41  38  32  31  27  23  73  54  21 
 21  20  20  19  19  21  25  24  27  30  32  33  33  33  30  28  27 
 27  21  23  22  26  26  23  22  19  19  21  26  27  29  33  30  31 
 33  33  36  32  30  27  23  23  22  22  23  26  24  31  44  40  46 
 52  50  46  41  38  34  30  32  29  23  22  21  20  19  19  22  26 
 34  36  42  48  43  51  49  47  44  40  34  33  40  42  47  40  34 
 34  28  24  23  22 152 147 121 133  43  16  21  16   7  19  19  19 
 24  28  30  28  30  26  30  28  26  25  21  25  28  27  28  26  22 
 18  17  23  24  30  32  31  32  32  35  36  32  32  29  26  23  24 
 25  24  29  28  30  39  42  47  50  50  56  42  35  31  28  28  22 
 21  20  21  21  18  19  21  26  35  39  45  46  52  53  53  54  52 
 46  42  37  35  35  35  35  30  28  25  56 145 134 154 161 176 199 
198 194 187 186 193 177  62  16  19  25  25  26  30  32  35  36  35 
 31  27  32  34  36  37  35  33  24  22  22  23  27  29  30  30  32 
 35  35  30  33  29  24  26  27  29  28  28  30  30  38  41  44  38 
 45  44  36  34  29  26  24  19  18  18  19  21  19  22  25  29  40 
 48  53  55  57  63  67  65  61  52  48  44  43  40  38  37  29  29 
 80 178 153 143 151 162 173 183 184 180 178 190 194 205  15  16  17 
 19  20  24  31  36  39  40  39  30  27  34  39  46  48  51  50  43 
 34  14  16  19  23  29  30  30  31  30  29  28  24  24  26  29  31 
 29  26  28  29  35  35  37  36  39  38  35  30  27  22  18  16  13 
 15  14  17  20  21  25  30  43  48  54  56  65  71  73  75  74  65 
 52  48  47  46  40  36  38  29 163 153 143 143 149 160 173 173 177 
173 178 185 194 204   5  19  21  21  19  24  30  35  40  41  36  30 
 29  36  45  49  54  60  56  47  39  10  12  15  19  23  28  28  29 
 29  30  28  23  24  24  26  28  28  28  26  28  30  30  29  28  27 
 27  25  24  21  19  17  15  12  12  12  16  18  21  26  31  40  48 
 52  60  72  75  79  82  75  65  57  54  55  50  45  41  40 113 168 
147 143 146 151 167 171 169 166 161 168 176 179 193  25  28  31  28 
 33  34  31  32  71  52 115 183  37 159  79  49  53  60  50  48  48 
 10  12  12  15  21  22  27  27  29  30  29  26  26  23  23  26  26 
 26  28  28  29  28  25  26  23  23  21  20  18  18  17  17  14  13 
 13  16  18  21  26  31  40  46  54  60  69  77  81  79  81  92  61 
 60  59  55  51  47  44 163 157 146 145 147 160 173 173 170 155 151 
149 166 174 207  38  39  39 156 140 168 195 193 183 190 179 184 174 
177 178 149  37  48  46  44  48  12  13  13  15  18  21  23  24  27 
 30  29  28  26  26  29  28  28  27  28  30  30  30  28  26  24  23 
 22  22  22  22  23  22  20  18  21  21  22  23  28  31  39  48  51 
 59  72  77  95 109 100 100  62  62  62  56  57  54  50  34 163 151 
147 149 167 171 154 155 139 145 137 152 170  82  47  60 140 162 196 
187 183 181 181 167 184 183 175 173 172 145 112  10  25  30  32  17 
 17  16  16  17  19  23  25  24  27  30  30  30  30  30  33  29  28 
 29  30  31  29  27  26  26  26  26  24  24  26  26  26  23  21  23 
 24  27  29  31  34  40  44  49  50  60  68  97 103  87  56  57  56 
 56  56  58  55  48  39 144 155 151 161 169 170 153 139 134 133 118 
146 166  39  42 120 179 183 171 158 175 165 154 171 159 151 157 163 
163 178 230   2  11  16  25  18  19  18  18  19  19  21  22  21  22 
 26  29  29  29  30  31  29  28  29  29  29  28  24  23  23  27  28 
 26  27  29  30  28  26  24  26  29  32  35  35  38  41  43  46  46 
 54  59  65  91  95 108  66  52  51  50  51  48  43  35 176 157 156 
167 172 157 142 130 118 131 104 139 165  38 106 160 163 161 141 170 
145 160 180 156 161 136 145 122 151 156 172 152   6  20  30  19  19 
 19  19  19  19  19  19  19  20  21  23  29  29  28  28  28  29  29 
 29  23  22  21  21  21  25  26  26  29  30  30  28  28  28  30  35 
 38  38  35  41  43  44  43  49  49  52  57  52 101 128 101  85  46 
 43  44  42  37  35  32 164 155 173 172 152 144 119 121 120  91 127 
141 113 135 127 126 127 172 138 167 143 146 146 163 178 180 188 186 
154 129 177   7  22  26  19  19  20  21  21  19  21  21  20  21  21 
 23  26  26  25  25  24  28  26  23  21  19  17  16  17  19  24  28 
 30  31  30  31  32  31  36  38  38  39  40  42  46  45  48  44  46 
 44 108  96 102 122 185 108  33  36  37  35  37  33  33  32 160 175 
170 153 120 125 110 100  88 116 126 111 130 125 130 149 118 166 133 
183 142 196 171 166 180 175 157 157 168  35  11  16  15  19  19  19 
 21  21  19  21  21  22  22  22  25  27  29  28  28  26  26  24  22 
 19  19  17  16  17  21  22  23  27  29  34  38  38  39  41  37  34 
 36  37  40  39  44  47  47  45  45  34 168 103 118  92  78  28  62 
 31  31  31  29  29  31  27 177 157 134 138 120 101  97  93  89 117 
118 109 109 111 116 134 107 179 192 143 133 152 175 154  39  16   7 
  7   9  11  12  12  17  18  17  17  17  19  21  21  23  24  24  26 
 30  32  34  33  29  29  26  23  22  20  16  16  18  19  21  23  27 
 33  39  44  47  47  50  45  37  40  36  35  37  40  45  49  50  50 
 48 115 106  93 111 129  98  27  11  30  21  53 143 145 145  59 172 
146 135 121  99  85  75  73 109  95  91  87 106 120 150 170 154 192 
189 225  66  53  51  65  11  11  12  12  13  12  19  17  17  18  16 
 16  17  18  21  22  23  23  24  29  31  33  32  30  29  28  24  23 
 19  17  16  17  18  18  22  28  36  43  49  49  51  48  45  40  38 
 35  35  32  34  39  46  48  49  48  41  67 122  83 125  58 194 115 
151 186 178 170 158 154 137 107 167 158 113  92  79  77  66 111  74 
 76  77 109 158 155 200 208   0  19  86  79  54  55  55  11  12  12 
 13  24  51  87  17  17  17  15  14  14  16  18  19  20  20  22  28 
 30  33  32  32  31  29  24  22  21  17  16  15  18  21  24  30  35 
 37  45  48  51  42  43  40  35  32  28  27  29  32  35  34  33  31 
 30  45 164 111  80  76 120 179 186 193 205 180 161 141 135 136 114 
 97 113  91  76  65  60 101  64  61  63  95 200 196  16  10  15  33 
 92  74  55 100  32  20  19  25  53  41  64  88  12  12  12  12  12 
 12  15  17  18  19  21  23  25  28  29  30  32  30  29  26  22  21 
 18  16  15  17  19  22  31  33  37  39  41  40  39  36  33  34  30 
 27  27  27  28  28  26  26  25  21  12   4 147 121  69 114 149 206 
181 173 128 143 149 128 124 124 112 113 106  71  70  60  87  58  53 
 70 195   9  14  27  29  48  75  92  68  92  96  88  64  38  34  35 
 35  40  42  10  10   8  10  12  12  13  15  17  17  19  21  21  22 
 25  26  28  26  28  24  22  22  21  18  18  18  19  21  25  27  32 
 36  38  38  39  37  37  33  27  25  22  23  22  22  22  19  18  17 
 16  92  13   4  44  87  79 190 137 161 142 134 123 116 120 107 104 
109 109  94  64  63  61  55  51 209  37  37  47  58  75  86  95  87 
 68  93  81 103 109  40  28  22  26  39  46   7   8   8   8  11  11 
 11  12  13  16  16  19  20  19  23  25  23  26  26  24  22  21  19 
 18  17  17  19  21  24  29  32  35  36  40  41  40  41  32  27  22 
 20  19  21  19  18  15  13  14  11  11   8  29  86 182 128  47  70 
114 171 156 152 133 110  96  93  86  85  81  83  56  59  48 135  36 
116 101  96  29  22  23  38  50  58  88  70  97  69  29  21  22  45 
 50  42   7   7   8   8   8   8   8   8  11  12  15  17  17  17  20 
 22  23  22  22  21  21  19  18  18  15  14  17  19  24  29  34  36 
 39  40  41  39  34  30  25  21  19  19  19  18  13   9  10   8   7 
  5   5   5 192 122 178 142 173 151  77  80 103 112 121 103  95  79 
 75  69  67  58  53 154  77  86  88 105 103 110 115 105 118   3  34 
 51  33  59  31  17  19  35  38  61  68   7   7   8   8   8   9   7 
  7   9  10  12  14  12  14  15  15  17  17  18  18  18  17  18  18 
 15  15  18  21  22  27  32  39  34  37  39  36  28  27  21  21  19 
 17  17  14  11   8   8   5   4   1   1 130 180 183 179 147 150 148 
153 179 159 146 134  69  69  82  80  89  91  74  60  56  60  73  92 
 87  97 120 125 131 128 120 120  27  13  12   7  17  28  30  40  55 
 73   7   7   7   8   8   9   6   5   5   6   7   8   8   7   8  10 
 11  11  12  12  14  13  17  17  17  17  18  20  22  23  24  28  27 
 29  30  30  28  25  22  20  17  16  13  11   8   7   5   4   1   1 
  1 178 175 165 174 179 183 142 168 162 152 152 122 103  98  78  69 
 60  51  34  38  42  63  88 108 113 120 141 143 147 143 125 122 124 
130  12  32  25  25  30  81 118 121   7   7   7   8   8   8   6   6 
  5   5   6   5   3   3   4   4   4   6   8   9  13  13  14  13  15 
 15  17  19  21  22  22  22  21  22  23  25  23  23  21  18  17  15 
 13  10   7   5   4   3   1   1 129 172 171 172 163 169 164 158 133 
133 152  96 110 115 106  91  80  61  53  52  44  66  82 103 131 137 
153 158 154 147 154 144 135 113 134 132  64  42  31 106  87  88   5 
  6   6   7   7   7   7   7   5   5   7   5   4   2   2   2   3   4 
  5   6   7   9  11  11  11  13  13  15  17  18  18  17  18  19  21 
 21  21  21  21  18  17  16  13  10   6   4   3   3   2   2  93 172 
167 161 161 158 131 134 126 162 131 119 127 129 123 115  86  78 122 
 92  66  71  76 116 139 140 127 153 147 138 155 152 149 140 132 124 
130  68  72  86  25  11   8   7   5   5   5   5   5   7   5   5   5 
  7   5   3   2   2   2   2   3   3   4   5   7   7   6   5   8  10 
 12  13  15  15  15  17  19  19  20  20  19  18  18  17  13  11   7 
  4   4   4   4   3   1 148 165 160 152 139 121 158 104   1   0 130 
134 140 126 118 105 101  90 133 147 124 117  96 143 141 158 146 162 
162 146 149 145 147 146 136 129 142 143   9   3   5   8   7   7   5 
  7   4   4   4   5   4   4   5   4   2   3   2   2   2   2   2   2 
  1   3   3   5   5   5   8   8  10  12  12  13  13  14  17  17  17 
 15  16  13  14  12  10   7   4   4   4   4   4   2 125 151 145 138 
126 172 177  97   2   2 135 139 137 144 155 106 115 108  98 137 178 
159 161 147 152 176 160 144 145 149 153 153 145 142 133 136 136 138 
137   4  20  14  37  13   5   5   6   4   4   4   4   5   4   1   3 
  3   2   2   2   2   2   2   2   2   2   3   4   5   5   7   8   9 
  9  11  11  12  13  12  12  14  12  12  11   8   8   6   7   5   5 
  4   4   4   3 131 126 130 117 123   2   3   2   4 137 129 144 159 
150 124 131 142 112 143 114 158 185 192 171 171 149 161 159 167 165 
151 143 144 141 134 134 144 134 125  34  19  18  29  15   6   5   5 
  5   5   5   4   4   4   3   3   3   3   3   3   3   3   2   1   2 
  3   3   4   5   5   7   7   8   8  10  10   8   9   9   8   8   7 
  7   6   5   5   5   5   5   5   5   5   5   4  97 122 119 148   3 
  6   5   4  12 136 144 164 155 128 142 147 150 145 141 116 167 186 
177 173 167 163 158 156 150 162 158 146 150 139 134 130 140 126 118 
  3  12  17  33  18   8   5   5   5   5   5   4   4   4   4   4   4 
  4   4   4   4   4   4   4   4   4   4   4   5   5   8   7   8   8 
  8   8   7   6   6   4   4   6   5   5   5   6   5   5   5   5   7 
  7   5   5   3  28 117 108   5   8   9   8 146 145 166 149 135 151 
149 155 153 151 151 119   4 170 172 166 162 161 149 146 145 138 151 
143 141 140 133 130 112 136 150   4  10  11  16  10   8   5   5   5 
  5   5   5   7   7   7   7   7   7   7   7   7   6   7   5   5   5 
  5   6   5   6   8   8   8   7   6   6   6   5   5   5   7   5   6 
  8   8   8   8   8   8   8   8   8   9   9   9  11   7   5   9  10 
 12   3 144 160 149 146 145 158 144 157 158 154 133 131 107 180 180 
162 160 161 165 149 144 148 140 146 147 129 135 114 132 124 125   4 
 11  10  10  10   8   7   7   5   7   7   7   7   7   7   7   7   6 
  7   7   8   8   8   7   8   9   7   8   7   7   8   7   7   7   6 
  6   6   7   7   7   7  10  10  10  10  10  10  11  11  10  11  11 
 12  12  12  12  13  14  15  15  15  61 151 158 162 138 158 143 151 
154 162 147 136 124 100   7 179 172 161 158 148 148 141 141 144 143 
141 136 123 117 111  40 217   8  11  11  11  10   8   8   8   9   8 
  8   9   9  10  10  10  10   9   9  11  11  12  11  11  12  12  13 
 11  11  11  10  10  10  11   9  10   9  11  11  12  13  13  14  13 
 13  13  13  15  15  15  17  16  17  18  18  18  19  21  21  20  18 
153 156 158 152 151 141 156 163 148 161 150 125 119 126   3 221 178 
170 154 147 146 139 138 138 129 122 117 124 125  89  28  11  12  12 
 11  11  10   8  11  11  12  11  11  13  12  12  12  13  14  13  13 
 13  15  14  14  15  14  16  16  13  13  14  12  13  13  12  13  13 
 13  13  15  15  16  17  16  17  18  18  18  18  18  19  19  19  20 
 22  21  23  25  26  26  24  21 144 149 149 140 152 141 146 150 139 
149 132 130 127 131   4  16 208 175 148 149 145 125 125 122 116 113 
113 123 124 123  12  12  13  13  12  10   8   8  13  14  15  15  15 
 15  15  16  17  19  19  18  19  18  19  21  19  19  21  21  19  19 
 18  18  17  14  19  17  17  17  18  17  17  19  19  22  21  22  22 
 22  23  23  23  25  25  25  26  26  27  28  30  31  29  28  25 136 
146 136 148 136 139 139 154 131 140 124 113 116 114  99  22  21  19 
 58  84 132  92  95 113 105 118 113  92   9  15  15  12  13  11  12 
 10   8   8  15  17  17  18  18  18  18  19  21  22  22  22  24  24 
 26  25  27  23  25  23  22  22  23  23  23  22  20  21  22  22  21 
 21  22  22  24  24  26  26  28  28  28  28  27  29  30  30  30  33 
 31  32  35  34  34  33  31 134 144 135 132 135 147 138 132 119 119 
120 122 123 118 103  25  25  25  24  23  41 113 109 104 104 108 133 
 48  20  15  13  13  12  12  11  11  10  10  19  19  21  22  22  22 
 23  24  28  27  27  28  28  29  30  30  29  29  26  28  27  28  27 
 29  27  27  27  26  27  26  26  27  26  28  29  30  30  32  32  32 
 33  32  32  34  36  36  36  36  36  39  38  39  37  36  34 141 137 
138 142 120 144 132 115 114 123 104 115 124 116 113  26  30  32  30 
 30  27  22 114 115  85  24  25  24  17  18  11  13  12  13  11  11 
 11  22  21  22  23  26  26  27  27  29  30  32  32  31  32  32  34 
 32  34  34  33  32  30  29  30  30  31  32  32  31  31  32  33  33 
 33  35  33  35  36  36  36  34  36  36  37  36  39  39  41  41  40 
 41  44  44  43  42  39 153 136 128 128 124 128 125 115 118 128 112 
126 116 114 110  34  35  35  34  34  32  34  33  35  34  37  23  17 
 20  14  12  13  13  12  12  12  11  39  24  25  27  29  30  29  32 
 33  36  34  36  37  38  39  39  36  36  36  35  32  33  27  32  32 
 34  34  34  33  35  37  37  37  37  37  39  40  41  41  40  40  38 
 40  40  38  40  41  44  45  45  47  44  45  45  44  40 144 125 123 
118 120 128 121 115 114 116 123 112 121 117  26  38  38  39  40  39 
 38  39  38  38  40  41  28  18  17  12  14  13  12  12  12  13  34 
 43  26  29  30  31  32  32  34  36  35  37  40  40  41  41  41  40 
 40  38  39  36  35  34  35  35  38  38  38  40  38  40  40  39  39 
 41  43  41  42  42  42  43  44  43  43  43  44  45  46  45  48  48 
 47  45  40  46  45 127 126 111 114 122 120 128 119 108 116 121 109 
126 119  38  41  41  43  44  43  42  43  42  42  43  43  32  18  16 
 13  13  13  12  17  14  36  45  45  29  30  32  33  34  36  36  40 
 40  40  41  42  45  44  46  45  42  41  40  40  37  37  37  38  40 
 41  41  43  42  45  44  44  44  45  45  46  46  47  43  46  46  51 
 47  46  48  48  49  48  49  49  46  47  44  38  44  39 121 107 100 
 99 125 125 100 113 106 113 124 137  30  41  45  45  45  47  46  47 
 46  47  47  47  47  39  16  17  16  15  13  12  20  30  46  47  47 
 29  30  35  36  37  37  40  40  42  41  42  43  44  46  46  45  44 
 44  41  42  42  39  39  40  42  44  40  44  46  48  49  48  47  47 
 47  49  49  50  48  49  49  54  50  50  52  50  51  49  52  50  50 
 47  46  45  45  46  35  90 108  88 114 121 113 117 110 115 118  42 
 46  49  49  49  49  49  49  50  49  49  50  49  51  49  28  20  17 
 18  17  14  44  50  49  48  48  30  32  34  37  38  39  41  41  42 
 40  42  44  46  45  47  46  46  46  45  45  44  43  42  43  45  45 
 45  48  50  50  49  50  51  52  52  51  52  52  52  52  53  55  55 
 55  53  54  54  52  57  54  54  50  49  48  49  47  48  46 100  94 
110 118 123  94 125 121  81  51  50  53  54  54  59  52  53  53  54 
 53  52  55  53  62  55  21  22  23  16  50  54  52  51  49  50  31 
 33  35  36  40  40  42  42  42  39  43  43  45  46  47  47  46  46 
 47  48  44  40  45  45  47  49  49  49  49  49  50  52  52  53  55 
 57  56  57  56  56  56  57  58  57  58  58  57  56  58  54  55  53 
 52  50  51  51  52  58  58 115 107 125 121 116 164  43  54  60  54 
 54  55  56  56  54  55  56  56  55  56  59  57  59  93  62  18  20 
 49  56  54  54  53  49  50  34  34  37  39  39  40  44  44  43  45 
 46  46  46  47  49  50  49  48  48  47  41  45  45  46  47  47  50 
 50  50  53  54  55  56  57  58  58  55  60  60  60  59  60  60  60 
 61  61  60  60  60  59  58  56  55  52  54  54  56  58  59  59  60 
119  72  47  59  59  57  58  59  57  57  58  58  56  57  57  60  60 
 60  60  60  60  63  64  58  61  60  58  53  54  54  51  51  34  37 
 39  40  40  42  43  42  44  45  46  46  48  49  50  49  49  50  49 
 48  46  47  49  48  48  50  50  52  52  54  53  57  58  59  57  59 
 66  60  61  61  61  60  61  67  62  63  61  62  61  61  60  59  57 
 57  58  57  59  59  61  63  64  65  62  63  63  64  64  62  62  63 
 63  64  61  61  61  60  61  61  62  59  65  62  60  64  61  62  60 
 57  58  58  56  57  52  38  42  42  42  44  45  46  47  47  48  48 
 48  53  50  50  50  51  51  52  51  49  48  49  49  51  51  51  52 
 53  54  55  55  60  59  60  60  62  61  64  62  62  62  62  62  63 
 64  63  63  61  63  61  61  61  59  58  58  62  63  65  66  66  66 
 65  63  67  61  65  65  67  68  68  68  65  66  69  65  63  62  64 
 64  63  67  65  67  63  63  59  60  60  59  58  59  55  38  45  44 
 47  50  48  50  49  48  49  50  49  50  50  52  51  54  52  52  52 
 50  50  52  52  52  51  53  54  58  57  57  57  60  61  61  62  62 
 62  64  62  63  64  61  62  62  64  70  69  64  64  62  62  61  61 
 60  61  62  63  65  66  65  68  68  68  67  67  67  68  69  73  70 
 72  72  71  71  69  70  70  68  66  68  67  66  63  65  65  65  64 
 63  66  61  59  59  47  47  49  53  51  52  51  52  51  52  52  53 
 51  52  51  51  52  54  51  53  54  54  54  54  54  56  57  58  59 
 61  62  58  62  63  63  63  64  63  62  62  62  62  62  63  62  66 
 64  66  66  64  66  65  62  62  61  61  63  63  65  70  66  68  67 
 66  68  68  66  68  69  70  73  73  73  73  73  72  72  72  72  71 
 69  68  72  69  66  67  67  67  63  64  64  67  64  51  50  51  53 
 53  56  55  55  56  54  53  55  54  52  51  51  52  54  55  55  54 
 54  54  55  55  57  58  58  60  61  63  65  64  64  62  64  64  66 
 64  62  62  62  62  65  64  63  64  64  66  66  64  68  62  64  62 
 62  63  64  64  65  65  65  66  67  64  67  68  67  68  69  71  73 
 73  81  78  73  75  74  72  73  72  70  71  69  70  68  69  69  69 
 70  70  77  69  55  51  57  58  53  59  61  60  60  53  59  56  54 
 54  54  52  55  53  54  55  56  53  56  58  60  59  60  62  63  65 
 64  65  67  66  67  66  67  66  63  63  62  65  64  63  62  62  63 
 62  64  64  63  63  64  63  63  63  65  66  65  65  70  66  67  67 
 68  68  69  70  69  72  76  76  77  77  76  78  78  78  71  75  74 
 70  74  72  71  71  73  73  74  79  69  74  73  57  57  63  61  61 
 59  63  60  63  63  63  59  57  55  54  53  54  52  54  55  57  58 
 59  61  62  63  63  66  65  67  67  67  62  62  68  67  67  66  65 
 64  64  65  70  65  65  64  64  63  64  63  63  64  63  63  66  66 
 66  66  65  65  65  70  66  66  68  69  68  71  72  76  76  76  77 
 80  75  82  80  80  79  79  76  72  71  75  75  69  79  76  76  76 
 84  81  77 