P2
# CREATOR: Image Processing using C-Ansi - ByDu
100  67
255
213 216 222 224 228 231 234 236 239 242 244 246 246 246 248 250 252 
253 253 254 255 255 255 255 255 255 255 255 255 255 255 255 255 255 
255 255 255 255 255 255 255 255 255 255 255 255 255 255 255 255 255 
255 255 255 255 255 255 255 255 255 255 255 255 255 255 255 255 255 
255 255 255 255 255 255 255 255 255 255 255 255 255 255 255 255 255 
255 255 255 255 255 255 255 255 255 253 252 251 251 250 249 217 220 
224 228 232 234 239 240 242 245 246 248 248 248 249 251 253 254 255 
255 255 255 255 255 255 255 255 255 255 255 255 255 255 255 255 255 
255 255 255 255 255 255 255 255 255 255 255 255 255 255 255 255 255 
255 255 255 255 255 255 255 255 255 255 255 255 255 255 255 255 255 
255 255 255 255 255 255 255 255 255 255 255 255 255 255 255 255 255 
255 255 255 255 255 255 255 255 255 254 253 252 252 214 220 223 228 
233 234 237 240 242 245 245 248 249 249 250 250 251 252 252 255 255 
255 255 255 255 255 255 255 255 255 255 255 255 255 255 255 255 255 
255 255 255 255 255 255 255 255 255 255 255 255 255 255 255 255 255 
255 255 255 255 255 255 255 255 255 255 255 255 255 255 255 255 255 
255 255 255 255 255 255 255 255 255 255 255 255 255 255 255 255 255 
255 255 255 255 255 255 255 255 255 254 253 212 216 221 227 230 233 
236 239 241 244 246 247 248 249 250 251 252 252 252 254 255 255 255 
255 255 255 255 255 255 255 255 255 255 255 255 255 255 255 255 255 
255 255 255 255 255 255 255 255 255 255 255 255 255 255 255 255 255 
255 255 255 255 255 255 255 255 255 255 255 255 255 255 255 255 255 
255 255 255 255 255 255 255 255 255 255 255 255 255 255 255 255 255 
255 255 255 255 255 255 255 254 253 215 220 223 227 230 235 236 241 
241 244 247 247 247 248 249 250 251 252 253 255 255 255 255 255 255 
255 255 255 255 255 255 255 255 255 255 255 255 255 255 255 255 255 
255 255 255 255 255 255 255 255 255 255 255 255 255 255 255 255 255 
255 255 255 255 255 255 255 255 255 255 255 255 255 255 255 255 255 
255 255 255 255 255 255 255 255 255 255 255 255 255 255 255 255 255 
255 255 255 255 255 255 255 214 219 221 224 229 230 234 238 241 243 
246 246 247 248 249 250 251 252 253 253 253 253 254 255 255 255 255 
255 255 255 255 255 255 255 255 255 255 255 255 255 255 255 255 255 
255 255 255 255 255 255 255 255 255 255 255 255 255 255 255 255 255 
255 255 255 255 255 255 255 255 255 255 255 255 255 255 255 255 255 
255 255 255 255 255 255 255 255 255 255 255 255 255 255 255 255 255 
255 255 255 255 255 216 219 221 224 228 230 233 235 239 242 244 245 
248 249 249 250 251 252 253 253 253 253 254 255 255 255 255 255 255 
255 255 255 255 255 255 255 255 255 255 255 255 255 255 255 255 255 
255 255 255 255 255 255 255 255 255 255 255 255 255 255 255 255 255 
255 255 255 255 255 255 255 255 255 255 255 255 255 255 255 255 255 
255 255 255 255 255 255 255 255 255 255 255 255 255 255 255 255 255 
255 255 255 209 214 218 221 226 228 230 233 237 239 240 244 244 246 
249 249 250 250 251 252 253 253 253 254 254 254 255 255 255 255 255 
255 255 255 255 255 255 255 255 255 255 255 255 255 255 255 255 255 
255 255 255 255 255 255 255 255 255 255 255 255 255 255 255 255 255 
255 255 255 255 255 255 255 255 255 255 255 255 255 255 255 255 255 
255 255 255 255 255 255 255 255 255 255 255 255 255 255 255 255 255 
255 208 211 213 218 224 226 231 227 235 236 238 241 242 245 247 247 
248 250 250 251 252 252 253 253 253 253 253 255 255 255 255 255 255 
255 255 255 255 255 255 255 255 255 255 255 255 255 255 255 255 255 
255 255 255 255 255 255 255 255 255 255 255 255 255 255 255 255 250 
255 255 255 255 255 255 255 255 255 255 255 255 255 255 255 255 255 
255 255 255 255 255 255 255 255 255 255 255 255 255 255 255 255 206 
208 212 215 220 223 227 232 232 234 236 240 242 243 245 246 247 248 
250 251 252 252 253 252 253 253 253 253 253 253 254 254 255 255 255 
255 255 255 255 255 255 255 255 255 255 255 255 255 255 255 255 255 
255 255 255 255 255 255 255 255 255 255 255 255 255 255 159 255 255 
255 255 255 255 255 255 255 255 255 255 255 255 255 255 255 255 255 
255 255 255 255 255 255 255 255 255 255 255 255 255 255 203 206 208 
213 219 223 225 226 230 233 236 237 238 241 244 245 247 248 249 248 
249 251 250 251 252 252 252 252 253 253 253 253 254 254 254 254 255 
255 255 255 255 255 255 255 255 255 255 255 255 255 255 255 255 255 
255 255 255 255 255 255 255 255 255 255 251 246 129 253 255 255 255 
255 255 255 255 255 255 255 255 255 255 255 255 255 255 255 255 255 
255 255 255 255 255 255 255 255 255 255 255 255 203 204 206 211 214 
218 221 225 227 230 233 235 236 239 241 242 244 246 246 247 246 248 
249 250 250 250 251 251 252 252 252 253 253 253 254 254 254 254 254 
254 255 255 255 255 255 255 255 255 255 255 255 255 255 255 255 255 
255 255 255 255 255 255 255 255 254  25  86 240 255 255 255 255 255 
255 255 255 255 255 255 255 255 255 255 255 255 255 255 255 255 255 
255 255 255 255 255 255 255 255 255 255 197 201 204 207 214 211 220 
221 226 227 232 231 235 236 237 239 243 243 241 246 243 245 246 249 
247 249 249 249 250 251 249 251 252 252 253 252 252 252 253 253 253 
254 253 255 254 254 255 255 255 255 255 255 255 255 255 255 255 255 
255 255 255 255 255 255 254 159  27 254 255 255 255 255 255 255 255 
255 255 255 255 255 255 255 255 255 255 255 255 255 255 255 255 255 
255 255 255 255 255 255 255 255 196 200 203 205 204 212 211 221 223 
225 229 229 234 235 236 237 239 240 241 212 241 243 244 246 246 247 
246 247 250 251 249 250 250 250 250 250 252 252 253 253 252 252 253 
253 254 254 253 255 254 254 255 255 255 255 255 255 255 255 255 255 
255 255 255 255 170 139 251 253 255 255 255 255 255 255 255 255 255 
255 255 255 255 255 255 255 255 255 255 255 255 255 255 255 255 255 
255 255 255 255 255 255 127 125 126 144 128 153 107 147 170 159 155 
220 158 146 157 186 194 249 169 103 245 121 152 254 187 176 145 253 
154  97 135 159 224 224 199 195 200 201 212 199 182 211 204 183 219 
199 204 207 222 220 215 200 205 219 212 214 207 221 223 218 223 228 
229 231 110 183 254 248 251 248 250 253 254 253 253 255 253 253 252 
254 252 252 254 255 255 255 255 255 255 255 255 255 255 255 255 255 
255 255 255 255 102  83 104 105  96  89  88 106 107 104 127 108 112 
102  73 120 124  90 127 114 118 101 119 114 113  74  90 103 124 151 
116 131 126 117 113 122 100 111 144 209 203 145 201 142 214 173 208 
182 150 140 138 130 135 140 210 219 145 185 165 150 147 153 149 143 
131 151 254 249 197 207 204 209 218 196 185 199 216 191 216 217 205 
220 233 226 227 232 232 228 240 233 240 233 241 242 245 245 246 245 
246 244  89 106  80  61  88 114  65  71 123  90 136 105  85  84  93 
 81 102  96 103 115 111  93  93  79  98  77 123  74  94  96 105  85 
 80  84  93 101  77  91  96  75  90 107 118 111  93 117 101 111 122 
126 110 119 247 141 107 103 112 118  87 149 124 111 180 136 140 141 
254 251 188 186 157 177 123 162 128 135 153 164 142 143 141 166 151 
160 179 167 184 180 196 203 243 201 183 242 207 216 230 208 214 205 
 54  99  49  63  54  84  61  91 126 121 107 120  98  82  49 101  57 
116 108  89  94  76  95 143 116  62  95 169 112  70 107 116 113 108 
107 104 132  93  99  84 102 133 167  94 112 117  70  83  98 111 145 
151 104  90  99  61 111  80  52  87 254 144  90 123 140 140 254 246 
120 119 175  87 104  82 119 123  93 132 108 139 137 132 138 152 147 
162 129 144 146 145 172 142 154 143 152 124 176 188 252 149  38  62 
 37  86  74  75  94  78  75 124 123 100 128 111  59  61  70 114 162 
141  74  91  82  65 111  48 123  99 125 227 150 161 148 144 112 123 
134 251  88 159 209 217  35 117  93  60  77  67 196 226 114 121 170 
150  54 100  56 122 120  38  66  76  94 168 141 139 249 249 175 177 
 67  75  69 126 205 147  97 176 209 208 219 227 155 117 136 122 107 
156 122 118 122 109 122 124 132 116 126 119 126 109  79  79  84 104 
 89 141  82 185 191  97  57  93  77  87 129 124 101  94  21  84 119 
 76  84 114 137  93  63  93 105 238 194  74 105 249 189 141  69  61 
107 163  35  59 132 151 188 231 105 203 132  87  71  78  73  31 204 
248  30 240 101  90 169 111  74  31 135 134 253 252  42  85  99  73 
 88  60  86 109 107  86 118 178 108 170 101  54  86 158 152 119 155 
144  82 116 138 167 200 142 121 154 222 249  42  48  56  61  56  46 
 72  84  92  71  72 184 160 160  43  33  43  63 106 112  22  86  90 
102  92  90  45  85 114 254 187  61  73  87  89  23 108  10  92  93 
106  20  19  24  64  26  10  59 131  33  75 111  34  56  57  18  23 
 27  66  28 233  27  79  49 130 127 254 252 126 150 152 151 155  96 
103  85  70  50 102 149 250  91 110 130  95  71  87  41  85  40  85 
 57  74  53  71  53 117 113 127 108  45  56  42  32  42  42 110 206 
210  93 159 133 136 141 142 152 123 133 134 127  37 116  26  99  93 
131 221  45  67  88  77 136 127 140 150  95  29 142 147 155 154 147 
155 127  94 207  28  81  87  74 117 215 240 248 252 151 137 108  42 
 27  16 202  86  90 115 113  68  80 112 119 120 118 142 251 153 113 
204  81 112  48 164 133  90 217  22 148 149 103 192 129 102 142  45 
 54  66 128 146 132  64  87  35  47  87  79 191 119  90 146 138 131 
130 121 178 122 138 127 201 140 135 141 135 153 125  85 169 152  67 
220 207 141 137 169 175 157 120  89 138 229 163 238 157 238 194  65 
109  96 143 143  43  75 101  30  41  90  38  61  83  64  51 174 150 
 31 115 162 162  87 103 123  54  90  54 110 207 154 221 226 253 120 
116 176 153 147 134 151 123 119 123 157  95 125 171  81  97  26 137 
 53  39  52  46  43  78 112 161 175 186  38  72  88  45 138 140 146 
203 151 139 105 126 253 143 147 142 121  72 154 126 154 157 155 161 
160 196 115 192 119 118 116 173 180 138 242 234 203  52  76  65 213 
226 227 176  58  36  95 110 115  37  69  70  97  79 163 100  54 111 
103 123  65  84 103  28  27  91 133 247 146 149 171 133 148 151 164 
124 130 169  50  60  57 109 141 116  76 130  86 151  85  84  49  22 
 71  25  40 131 134 137 163 153 153 182 150 204 198 154 116 121  99 
201 127 144 186 134 168 174 142  94  88  97 103 178 136 225 248 239 
209 156  96 142  86  77  64 159 201  90 130  46 111 101  83  63  79 
 83 151 141 176 140  79 127  58  77  52  76  87  73  26  88 112  22 
 57  56  81  84  70  98  60 103  56  40 248 238 221 138 206 188 114 
101  73  38  89  51  89  96  12  61  85  56  15  15 169 120  41  29 
 53 145 109 160 160 139 120 140 115 188 167 163 147 156  85 242 188 
202  61 189 226 225  48 108 146  94  60 240 138 192 214 119 206 160 
 93 134  88 237 138 137 223 140 175  54 160 144 130  96  85  75 133 
 79 103 139  89 124 157 111  42  35  52  73  42  67  87  79 118  54 
 59  87  38  83  88  49  76  53 177 106 149 155 108  74 197 145 171 
 61  78  96  31  20  51  85  39  15  78  26  10  45  82  48  65 131 
147 129  95  70 111 103 252 215 174 147 182   8 243 209 196 202 168 
250 119  85  24  75  70 135 187  72 152 170 143 177 164 149 149 159 
220 188 166 156 144 134 119 134  80 127  33  15 134  82 209 230 146 
157 141 113  99 213 166  44 151 141 127  31  74  66  43  99  92 122 
 68  57  32  32  59  85 110  98 115 105 104 105 116 109 100  82 185 
161  64  95  66 194 175  54  39  44  68  60  10  51  58  51 227 113 
190 163 111  78  52 244  31 154 209 169  99 113 114  86 206 163 214 
168  84  53  90  32 107  58  86 117  92 137 179 205  69 100 230 219 
 82  35  43  96   4  21  48   1   5  45  77  36 221 220 110 105 129 
138 120 129 104 127 101 117 124 106 144 181  31  14  78  41  95  35 
 31   7 123 111  81 117 104  83 107 111  99  93  99 108 106 158 137 
168 157 148 149 107 109  80  86  53   9  19  72 145 153 149 161 157 
151 143 149 171 155 219 174 147  80 110 141 223 165 204 235 241 207 
100 251 177 100 169 226  53 125 102 139  52  43  42  86 201 172 111 
 86  58 118  51  72  65  53  63  77  16 138 119 138 120 128 116 109 
140 122  69 107 118 132 130 148 169 143 113 125   4   1  23  36  22 
 23  81  98  48  56  79 117  48  64 113  66 122  91  67 171  99  98 
 97  93  92 115 113 150  96 169  20  76 180 138 154 153 147 156 152 
158 153 145 152 139 152 158 163 155 136 229 210 197  93 170 109 241 
225 119 231  52 137  18 100  76 138 170 166 101  74  60  84  98  55 
 85  61  87   7  11  39  75  43  79  88  65 133 121 105 105 132  11 
 69  72 161 148 154 121 230 218  66  75 103 101 110 129 120  91  36 
151 129 214 111  88  47  67 107 118  93 113 121 127  64 121  93 109 
185 148 102 117 101 246  16  40 140 150 149 155 153 149 153 154 155 
 85 150 248 145 235  26 234 224  36 240 117  89 159 167  69 185 131 
 62 169 106 176 114  87 146 170  85  93  86 112 146 116  73  57  61 
 46  64  68  78  79   5  10  31  47  86 103 154 130   2   2  85  82 
 45 249 249 127   6  15  32  80   2  91  88  65  16  49   2  70  84 
 84  40  41 247 148 248  90 112  98 113  84 118  56  69  75  99 249 
 87 115  81 250  62  44 117  78 133 238 246 143  31  56   2  40 238 
 28  61 233  61 212 171 173 162 163 186 130  66  72  62 171 176 138 
118 182 185  81  84 169 168 170 174 171 150 127 155  96   2 133 211 
166  55  13   7   1  57  64  37 117 118 134 134  73  56  34  96 118 
 64  34 220   6 101  86  71  95  77  19  73  63 111  95  92 123 122 
 73 127 126 117 143 229  23 111  65  86 111  95  74 154 237  38  21 
 53  46 133 179  36  47  31  97 121  69  69 252 220 132  52 148 133 
103  11  41 100 172 122 132 101  43  77  66  85  35 229 181 141 139 
139 192 189 155 156 156 155 159 164 117 127 154 123 161 116 124 122 
186  23   6  14  88  59  22  36  32  73 125   5   5   9   2  58 111 
 22  10  53 102  32  24  19   8  34 182 104 110 101  97 121  99 153 
144 147 157 105 121 237  45  76  83  97  61  44  30  60  58  74 137 
 25 112 247 165 168 144 139 116 148 137 157 139  16  56  56  64  92 
 90 202 175 169  81 173  33  99 108  75 176 137 137 151 144 148 124 
149 212 150 145 154 108 101 100 137 139 124 159 135  47  76 127  72 
 75   5  19   7  36  55  37  86  27   7  47  23  42  44  66  41  64 
 35  10  23   4   8  11  78 106 107  97 100 114 108  81 177 151 144 
139 131 141 139 159  31  70  68  45  40 129 156 133 114  73  61 175 
152 152 148 148 152 148 161 157 153  81  15  13  59  50   8   5 158 
167 168 106   9  52  96  93 212 158 139 132 141 132 154 153  72 167 
154 149 147 162 179 139 136 160  71  40  56  80  82  21  71  51  45 
  1   6  18   1  21  53  41  35  51  39  79  34  24  17  13  68  22 
  4   4   2   5  69  23  92  94 109 116 118  92  55 146 148 149 124 
120 246 178 112 188  76  56  87 121 170 160 186  71  60   7 151 150 
151 146 149 159 155 163 168 185   1  12 171   6  21  69  27  21  15 
  1 216  51  18  55 137 158 131 110 251 248 236 246 247 239 159 154 
136 146 169 187 215  24   1   0  33  53  22  73  29  13  29   3   6 
  1  11   1   3   7  21  51  19  14  62  49  39  11  59  80  54 112 
  3   5   8  86  94   1  87  73  75  72  95 132 119 227 250 250 234 
136 167  40  29  69  88  77  10  52  38  29  37 140 149 149 156 120 
 79  88  80  81  62  59   1  41   9   4  25  43  40  30 158 147  84 
 50  34 104 245 232 235 240  63  48 208 244   4 219 150 155 146 138 
169 168 182  21   2   9   2   6  19  35  12  76  90  22   2   4   5 
  1  11   2  23   5   2  11   9   2  32 234  75 177  97 109  48 116 
 24  84  63  64  74  81  84  61  91 138 249 229 209 184 225  37  40 
 57  21  72  54  70  54  21  18  39  18  63 154 154 159 128 145 149 
 88  75  57 110  19   7  12  61   1   8  79 138 155 159  61  44  44 
 63 231 232 220  57  67 140 163 175 182 246 164 152 168 157 133 246 
254  29   3   5   1  49   7   1   4  19  52  20  35  13   6   2   5 
  9   5  12  44  38  47 101  18  76 114 113  88 121  89 140 144 131 
 61  58  52 107 141 129 157 244 249 110  70  40  33   4  86  30  47 
 24  93  40  79   5   7  34  35   3 154 151 148 157 139 168 173 152 
176 116  70  92  68  26  12  82 127 148 153 148 148 149  62  36 244 
216  79  66 107 154 160 168 177 188 206 164 170  20 200 245 251   6 
  2   0   4   2   9   0   5  70  58 109 110 145  74  36   1  30  17 
 69  22  12  27   8  78  84  81 104 104 118 126 137 143 154 110  94 
119  89  94 197 234 146 236 167  79  76  69 153  39   3  10  75  51 
 41  90  21   9  89  55  51 112 113 114 121 138  90  58  60 141 145 
 73  60  61  22  64 114 134 143 149 150 157 157 145 174 235  38  71 
100 131 137 148 148 162 176 191 195 236 213 226 204 220  10   1  12 
 12   1   6   1  22  62  76  61  43 147  71   2  45  24  56  54   1 
  4   3  53  50  63  61 103 114 109 112 139 128 150 141 101  46 117 
 74 195 106 236 161 129  66 140  21  11   2  13  26   4   9  36  29 
  3  46  66  51  49 121 117  86  84  98  36  48  67  98  60  45  64 
 42  52 121 122 134 150 150 136 144 173 133 143   4  52  80 125 139 
151 147 162 164 169 151 170 249 233 195  89 115  10   5  12  30   5 
 92  62  79  98  40  44  34  34  44  43  14   4   7  11   2  33  14 
 63  12  51  73  37  69 103  88 132 103 128 217 110  37 101 109 186 
149 122 172 195  63  56  18   2   3  24  27  30  61  15  26  40  50 
 54  23 122 103  55  65  62   4  54  68  30  44  57  49  60  56 111 
118 134 129 142 152 149  58 167 165 151 110 115 120 142 139 171 157 
165 164 159 137 249 104 249  96 148 224  68  30  10  97   1  45   3 
 36  36  97  35  53  30  33  20  66 110  24 103   6   7   5  49  60 
 61  27  65  32  51  19 117 216 154   2  45  94  59  54  55  20   8 
 15  53  59  14  78   1  10  22   1   1  31  41  51  51  48 229 160 
132 121  60  62  54  30  49  61  31   1  41  52  11  26   2  55 104 
178 240 215 105  71 214 164 234 121  79 116 150 139 149 131 134 246 
247 248 238 145 202 116 102 241  48  61   5   1   4   6  62  31  30 
 85  35  46  39  33   1   9   7  12   2   0   6  43  11  36   1   2 
 34  16 245  35 248 180 186 169  49  61  72  38  15   9   1  32   1 
 25  32  55   9   1   2   1  57  57  55  43  27 148 110 141 115 123 
140  67  89  52  24  19   1   1  38  80  29  21   1  72 123 243 192 
120  76  60 167 125 233  18 125  99 155 170 215 227 244 249 241 124 
207 170 149 105  86 246 163 177  26  82  14  66  81   2  59  80  45 
 50  46   8  19  51   7   2  16   3   0  42  12  24  13  23  20   7 
135  80  67 128  70  88  27 132  33  29  73   1   1   3   1  29   5 
 44  23   7  51  64  63  74  83  27 112 143 104 150 143 144 122  94 
113  28  27   1   0  18  23  53  44  31   4  96  96 197 138 114  40 
 68 165 240 120 176  41 137 132 208 180 235 253   3 247 132 221 119 
  5  73  29  72   3   4  39  20  87  95   2  61  97  80  61  60 103 
  1   9   9   3  11  20   5 106  23   6  28  32  57 144 136 146 149 
134  19  70  36  90  38  83 118 120   9   4   1   2   0   9   0  34 
 60  60  71  61  31   1  98   5 127 123 133 141 234  66  45 111  80 
 98  65  52  26  16  88   1   1   3   3  44   4  10  98  79  45 135 
245 211 135  87  98 126   5  66 233 147 204 249  96 246 201  43  65 
 71  87  18   8  43  74   8  81  27  94  75 139  57  59   2  13  14 
  9   4  13   4   3  86 127  62   1  35 119 166 153 145 162  47  79 
  6   5  65  38  23 106 117 127  71   1   2   1  12  56  50  71  63 
 67  39  49  45  15   0 106 143 123 130   3  66  64  39  62  17  19 
  4   4   1  26  46   0   2   2   9 222  37  63 118 147   4 247 209 
145 106  52  73  10  49 223 214  84 245 248 250 222  39   3 115  97 
 49  34  14  55 125 104 145  95 105 120 128 161  22  31   5   2  11 
  9 207  47  90  85  77  79 118 136 129 146  69  10  45   3   2   1 
 24  53  77  44  63  54   1   9   3  16  11  61  52  58  64  67  84 
 90  74  62  41 120 137 146 128 171  79  19  39  70  95  66  59  40 
 48   7  16   3   0   5 208  28  39 157 145 141 178 237 228  55 111 
177  53 165 198 220 228 239 244 246 251 225  95 102 190  54 122  96 
150  74 140  87 134 181 127 127 136 100  79  45  45  76  68  53  48 
 52  26 219 131 124  87  60  97  95  31  37  63  20   2   2   8  19 
 55  51  65  34   3  65  50  64  68   4  59  81  71  92  73  62  53 
 82  98  63 136 135 126  29  26  37  45  80   4  72  11  68  35  64 
 74   7  37  27  47 138 165 152 157 163 174 248 149  64 106 215  50 
145 168 195 235 232 242 244 250  80 145 173  54  41 102 157  32  66 
 89 116  49 115 131 128 138 104  54  33   7   5  17  56   8  66  96 
 52  38  66  80   2  21 110  20   3   2   7   2   1  17  65   7  33 
 65  49  37  76  53  72 251 136 167 228 124   3  50  58  81  76  80 
 46 150 142 138  69  87  70  99  73  17   1   8   9  22  58  14   0 
 19  32 126 134 143 159 190 169 240  94 115  29 237 204  70 132 151 
217 213 243 111  15   4 120  85   2   3 158   2  95  83  81 113 182 
183 129 129 131 150  77  59  65  31   9 111  79  69  59  61  59  45 
  8  93  14   2  60  43  21  52   0   1  27  46  31  24   6  21  14 
 70  39  16 147 111 134 133 161 152 192  22   7  96 113  71  84 134 
128 129 158  34  23  61  66  53 104  29  10   0   2  14   4  51 111 
 70  73  74 173 145 124 188 246 236 231  81 225 183  33 119 102 138 
 48 146 100  34  31  67 197  32  16  32 107 126  88 143 182 139 133 
125 144 174  62  50  53 189  79  66  64  55  60  89  12   1  13 110 
  4  14  17  27  55  25   3   2   7   2   0  13   8 102  94 111  89 
 11 116 117 138 148 129  72 104  96  57 231 174  92  75  54 139 146 
 51  84  68  70  28  57  46  38  70  42   6  16  29  59 101  34   1 
 85 158 224 154 224  54  67  70  28 100   5 105  61 102  88 177  35 
129  19   5   7   0 180 113 157  89  79  62 115 116 156 151 139  94 
 90  92  63  71  73  67  52  42  66  20  22   2   8   3  73  11  19 
  2  90  82 104   0   2   2  37  33  46  73   1 121  84  78  59 119 
141 142 150 135 120 132 141  78 196 180 126   1  51 156 160   8  36 
 26  55  48   5  42   1  14   4   3   6   2  21  70 109  87  24 239 
  3 241  60  28 134   1  17   7  88  92   4 142  65  71  78  13  82 
 49 128   0  60  41  26  75 110  50  82 162 150 142  84  72  70  67 
 65  56  63  63  84  25  15  44   1   7   1   2  22   2  20  51  18 
153  67  32   4  62  51  39  62  24  47  44   1 148  66  64 119 175 
140 137 176 150 105 161 124 110  92 134 251 165  28   3   2   8  14 
  1   1   0   2   3   2   2  19  21  12  67  77   1  47   6  28  13 
  4  57  11  15  33   2 176 119  82  98   4  95 199  34  70 124  43 
 53   8  32 187  51  95  46 150 152 146 156  96  73  77  68  67  68 
  2   5  13   7   6  33   3  44   2   1   0   1  23  14  81  14   4 
 42 233  22  65  74  48  45  48  46  10  38   2 160 135 145 165 137 
135 162 140 161  99 107  97  52 173  16   0  48  30   1   1   0   0 
  0   8   1  34  66  23  45   8  48  85  65  37  54  80   6  22  22 
 19   8   6  29  97  34 150  61  82 189 121   7  73 164   9  58  46 
  7  50  57  84  98 153 146 149 156 144  76  72  68   1   4   6  20 
 22  10   1  22   3   4   1   1   3   1   5   1   2  42  52  73  57 
 50 170   8  57  24  61  50  82 123  63 213 161 155 145 147 152 149 
147  87  62 109 113  98  99 157 142  44   4   1   1   2   3  25  40 
 46   1  63  16   5  50  57  54  96   2   1  93  62  24  14   6   1 
  7  29   1  54 128  45  83  72 154 112 180 188 166 165  48  70  48 
 71 165 154 151 141 140 139 140 146 158 104  80   8   5  10   6   9 
 38   1   2   8   1   1   3   3   0  39  48  63  45  79  46 252  55 
186   4   3 102  69  49  53 110  29 139 135 139 131 132 139 106 104 
 88  88 114 104 108   2  38  76  13  27  31  27  29  26  43  31  15 
 56  39  86 146  33  53  67  85  13  13  50   4   1   6  10   2 188 
107  63  67  21  79  88  52  37  88  84  55  55  70  52  60 167 144 
141 139 141 138 145 141 149 143 139 135 153 111 134 136  97  76 107 
 40  39  11   4   1  50  67  28  58  69  67  30 253 243 203 202 218 
238   1 110  88 137  81  31 153 134 110 133 106  94 109 105  99 101 
 74  83 131  18  39  83  33  24  26  31  25  39  62 115  91  91  45 
 64  86  76 114 149  37 139   1  26   6  16  49  65  36  91  24  73 
 61  72  61   6 187  54  44  45  83  58  92 248 153 153 140 142 137 
137 136 133 120 135 130  66  48  14  26   1  28  43  49  66  26  30 
 27  29  42  56  29  65  61  30 233 191 207 214 199 197 198 205 199 
 83   1  43  80  62 146 122 118 144 108  93  87 109 114 106  91 148 
188 163 124  91  92  86  85 100 102  51  79  33  27 106  86  84  39 
128 129 137  78  43  29   8  21 216  37 105  39  18  45  24   9  12 
113  90  40  79  91  92  76 200 159 147 140 140 141 141 135 135 134 
151 144  73  83  36  58  77  61  69  67  84   5   1 152   1  36  40 
 39  64  49  63 162 200 202 203 198 200 198 196 198 199 220  43 208 
  1   5  80 150 120 125 102 103  96 105  88 109  89   4 140 181 189 
239  60  45  48  76  29   1  60  63  17  59  83  83  94 106 115 121 
129 136 143 123 148 160 119  62  41  45  53  37  46  26  65  86  84 
 48  76 189 153 141 142 142 144 138 138 139 123 131 121 124  72  94 
 64   7  80  42  77 114  68  49  38  31  17  38  53  41  65  57  52 
 24 197 199 197 197 199 197 197 194 201 199 198 188  81 103 227 245 
 24  15 120 114 108 107 107 108  96  99  14  35  28  46  50  14  22 
 20  27  23  28   4  57   5  51  66  83  68  63 107 120 117 123 123 
134 137 138 147 147 149 143 147 160 150 171 177 160 143 141 141 126 
145 138 115 141 141 141 123 130 119 112  82  56  59  35  45  43  60 
 75  82  70  58  64   6   4  52 111  51  63  84  44  55 254 199 210 
199 199 193 198 199 198 196 191 198 195 252 129 144 165 107 207   2 
  5 181 107 114  80 113  79  25  24  33  29  37  16  16  21  25  23 
 25  48  28   8  12  77  74  79  73  90 113 139 124 130 128 124 131 
133 136 133 135 124 136 134 134 132 131 135 134 136 134 128 137 139 
139 136 143 119  92 128  63  67  97  59  51  59  18  24  65  31 100 
  1   7   4  42  42  35  92  87 128  91  21  81 113 203 203 200 193 
198 197 193 197 198 200 205 197 169 131 175 125 182 145 162 190   7 
110  92 100  81  27  15  27   5  31  16  16   9  90  19   1  37  47 
  7  62  14  10  42  61  97  69 116 131 137 127 129 132 136 135 139 
136 139 137 139 140 131 132 130 135 132 133 134 133 132 133 133 130 
131 107 117 107  84 108  60  51  62  54   2  37  49  44   4  10  49 
 40  59  55  61  20  76  76 141  77  55  49  31 207 204 196 196 198 
199 196 201  53 146 150 148 131 133  98 159 138  84 154 188 157 142 
 70  14  13  23   4  50  15  10  11   4   0   0   2   2  30  45  55 
 25  11  55  58  34  63  99 130 142 136 127 132 140 145 144 143 138 
141 139 139 133 131 131 135 135 134 131 130 131 135 130 131 126 127 
127 129  59  58  55  45  69  88   0  17  41  71   9  10  45  38  57 
 56  50  16   6 145  14  20 163 100  47 125 226 205 201 199 200 191 
184 142 138 112 166 121 137 128 113 110 143 134 148   8 167   8  33 
 38  30  27  10   4   6   6   4   0   0   2   0  40  42   1   5  65 
 57  58  69  88  84 100 116 137 127 129 140 133 139 139 136 131 136 
133 133 136 133 138 138 137 141 140 130 142 129 126 132 116 104  60 
 52  47  48  43 134  56 120   5   1   1   4   2  16  26  47  29  28 
 41  25  14  99  51  66 122  17 111  50 207 219 195 205 188 191 135 
146 160 116 136 134 136 248 117 136 113 161  19   7 175 201  30  54 
  3  11   9  11   4   4   0   0   1  30  19  30  15  39   2  60  47 
110  49  99  53 140 110 131 133 138 139 135 133 132 128 132 129 133 
136 142 146 141 143 142 140 139 141 112 111  70  66  67  64  51  43 
 38  32  27  59  38  47   1   1   2   0   1  50  17  53  23  34  41 
 20  29 143   8  85  36  75 107  97 196  42 123 143 140 200 146 152 
142 130  96 138 116 244 131 134  96  60  11   9   4 169   4   9  10 
  7   8   4   4   0   0   0   4  45   1  57  37  36  85  72  74  42 
 66 177 129 132 128 133 131 134 136 129 130 133 131 133 139 124 132 
144 143 137 133 130 126  53  48  73  30  58  71  39  19  58  35  35 
 34  61  51  31  12   9   1   3   6   6  13  80  35  27  45  28  23 
 11 107  74 108  30  61 192  48 118 148  93 195 133 186  86 172 177 
146 114 135  87 236 136 126  41  17   5 109   3 115   5  17  10  10 
  8  18 